Coordinates
version=1
nRows=14
nColumns=24
inDegrees=yes

Units are S.I. units (second, meters, Newtons, ...)
Angles are in degrees.

endheader
time	pelvis_tilt	pelvis_list	pelvis_rotation	pelvis_tx	pelvis_ty	pelvis_tz	hip_flexion_r	hip_adduction_r	hip_rotation_r	knee_angle_r	ankle_angle_r	subtalar_angle_r	mtp_angle_r	hip_flexion_l	hip_adduction_l	hip_rotation_l	knee_angle_l	ankle_angle_l	subtalar_angle_l	mtp_angle_l	lumbar_extension	lumbar_bending	lumbar_rotation
      1.76650000	     -0.62856179	      5.51059527	     -2.53131699	      1.43627857	      1.01998011	      0.24024018	     16.69381931	     -5.09885705	      0.69714818	    -67.18797308	      0.87907753	    -15.55958674	      6.55016587	      4.26734551	     10.52456093	     -1.18586912	     -7.25509303	      0.10253682	    -11.53767901	      7.47822526	     -1.16919133	     -6.52214995	      4.99914286
      1.77066667	     -0.63540502	      5.41708213	     -2.22054585	      1.44098113	      1.02038459	      0.23947186	     17.14588576	     -4.95979565	      0.55016028	    -66.77817595	      1.00791687	    -15.70314733	      6.46354012	      3.82340578	     10.47798030	     -0.90334035	     -7.00446765	      0.19378746	    -11.40746400	      7.45146821	     -1.20631351	     -6.41720222	      4.73630621
      1.77483333	     -0.67367534	      5.32103919	     -1.92631231	      1.44566066	      1.02071155	      0.23874991	     17.63324941	     -4.80921727	      0.43441014	    -66.34557996	      1.14414126	    -15.83513979	      6.40911556	      3.42218849	     10.41951041	     -0.64737745	     -6.76803751	      0.27014122	    -11.25391906	      7.43810584	     -1.22284578	     -6.31638872	      4.56809944
      1.77900000	     -0.69020096	      5.22804614	     -1.61994615	      1.45037519	      1.02105044	      0.23801499	     18.07948023	     -4.67929618	      0.29358763	    -65.87301947	      1.21069054	    -15.99543072	      6.31708365	      2.98844789	     10.36315198	     -0.37206439	     -6.51348900	      0.37595002	    -11.13422641	      7.41434763	     -1.23635938	     -6.21099286	      4.21225473
      1.78316667	     -0.71013830	      5.14202016	     -1.31696917	      1.45503044	      1.02132858	      0.23727821	     18.53234071	     -4.56486348	      0.15907700	    -65.38835294	      1.31567888	    -16.11434632	      6.22167146	      2.57064537	     10.31041883	     -0.10627584	     -6.27567361	      0.46526446	    -11.00570194	      7.39239645	     -1.25650049	     -6.11002119	      3.93869533
      1.78733333	     -0.74611821	      5.05527513	     -1.02704856	      1.45970828	      1.02156940	      0.23657971	     18.99238189	     -4.44777046	      0.03967920	    -64.86737526	      1.42409006	    -16.22781431	      6.11539064	      2.17087758	     10.25066471	      0.14800487	     -6.03508500	      0.54434046	    -10.88153104	      7.36824982	     -1.25575928	     -6.01469560	      3.68809102
      1.79150000	     -0.78103465	      4.97968594	     -0.73244340	      1.46436581	      1.02177092	      0.23588114	     19.44711950	     -4.35282840	     -0.08357536	    -64.33142074	      1.56152753	    -16.29565085	      6.07750454	      1.77534482	     10.19802279	      0.37568137	     -5.80007618	      0.60650593	    -10.72135245	      7.36332558	     -1.25777982	     -5.92925924	      3.58425304
      1.79566667	     -0.77833905	      4.89520124	     -0.42870182	      1.46900514	      1.02200796	      0.23519679	     19.84516639	     -4.25148500	     -0.21011653	    -63.75390526	      1.62651995	    -16.39389012	      5.97230651	      1.34196335	     10.13313285	      0.66242804	     -5.57211555	      0.72293538	    -10.61609115	      7.34488662	     -1.30873606	     -5.84607536	      3.19254039
      1.79983333	     -0.82254679	      4.82663282	     -0.14425342	      1.47367079	      1.02212773	      0.23453102	     20.29687290	     -4.17231102	     -0.32050268	    -63.17108193	      1.75725938	    -16.44205821	      5.93512704	      0.96398953	     10.07988329	      0.88762182	     -5.34954746	      0.78151966	    -10.46550413	      7.34144340	     -1.29658579	     -5.76495655	      3.09408714
      1.80400000	     -0.82281349	      4.74544151	      0.15853595	      1.47829889	      1.02231704	      0.23387431	     20.67763281	     -4.08345486	     -0.44261844	    -62.53359799	      1.80684300	    -16.51753133	      5.82379143	      0.53708614	     10.00931624	      1.17180356	     -5.12219743	      0.88158321	    -10.38336058	      7.32573362	     -1.34259983	     -5.68859636	      2.70876789
      1.80816667	     -0.86698082	      4.66813496	      0.46296514	      1.48290862	      1.02239195	      0.23322718	     21.10573141	     -4.00615243	     -0.56648918	    -61.88693629	      1.92033611	    -16.53503673	      5.76559951	      0.17434230	      9.93700917	      1.41821841	     -4.92814321	      0.95658945	    -10.25036177	      7.32045348	     -1.33883757	     -5.62072334	      2.56444334
      1.81233333	     -0.88317152	      4.61543666	      0.73485829	      1.48753161	      1.02245839	      0.23261438	     21.50470457	     -3.95311557	     -0.65530549	    -61.22951283	      1.98407528	    -16.56843187	      5.65781608	     -0.23719236	      9.89031276	      1.67100420	     -4.68951008	      1.04201360	    -10.16720323	      7.31103271	     -1.36322238	     -5.56091637	      2.24301751
      1.81650000	     -0.92401154	      4.55504211	      1.03460007	      1.49216578	      1.02247415	      0.23199294	     21.90826095	     -3.90234598	     -0.76586218	    -60.54015143	      2.06720138	    -16.57098891	      5.56349398	     -0.60745239	      9.82917226	      1.93655159	     -4.48128032	      1.12713197	    -10.06513263	      7.30321586	     -1.35818100	     -5.50534233	      2.02775532
      1.82066667	     -0.95838263	      4.49557010	      1.31149396	      1.49677505	      1.02247178	      0.23140278	     22.30328556	     -3.85186833	     -0.85967340	    -59.82197083	      2.16513806	    -16.55706682	      5.52212131	     -0.97630026	      9.76487915	      2.15869280	     -4.28531528	      1.18843088	     -9.93275550	      7.30291949	     -1.35766387	     -5.45405546	      1.92002466
